<?xml version="1.0" standalone="no"?>
<!DOCTYPE svg PUBLIC "-//W3C//DTD SVG 20010904//EN"
 "http://www.w3.org/TR/2001/REC-SVG-20010904/DTD/svg10.dtd">
<svg version="1.0" xmlns="http://www.w3.org/2000/svg"
 width="700.000000pt" height="700.000000pt" viewBox="0 0 700.000000 700.000000"
 preserveAspectRatio="xMidYMid meet">
<metadata>
Created by potrace 1.14, written by Peter Selinger 2001-2017
</metadata>
<g transform="translate(0.000000,700.000000) scale(0.100000,-0.100000)"
fill="#000000" stroke="none">
<path d="M4023 6062 l-92 -3 -26 -82 c-14 -45 -76 -235 -136 -422 -61 -187
-126 -389 -146 -450 -20 -60 -48 -148 -63 -195 -16 -47 -70 -213 -120 -370
-51 -157 -103 -316 -115 -355 -13 -38 -71 -218 -130 -400 -155 -480 -203 -628
-240 -740 -18 -55 -52 -158 -75 -230 -22 -71 -72 -224 -110 -340 -37 -115 -91
-282 -120 -370 -28 -88 -75 -234 -105 -325 -29 -91 -97 -300 -150 -465 -53
-165 -100 -310 -105 -322 -5 -12 -6 -24 -2 -26 4 -2 174 -3 377 -3 l370 1 22
65 c12 36 46 142 77 235 30 94 87 271 127 395 40 124 74 230 75 235 1 6 18 57
37 115 18 58 60 186 91 285 32 99 66 205 76 235 10 30 51 156 90 280 39 124
78 243 85 265 8 22 55 168 105 325 51 157 136 422 190 590 54 168 137 427 185
575 47 149 90 281 95 295 5 14 47 147 95 295 47 149 94 293 103 320 9 28 17
52 17 55 1 3 32 100 69 215 97 299 99 305 94 310 -5 6 -518 11 -645 7z"/>
<path d="M2195 4693 c-44 -19 -127 -54 -185 -78 -91 -37 -393 -163 -800 -335
-63 -27 -160 -67 -215 -90 -55 -23 -124 -52 -153 -66 -29 -13 -56 -24 -61 -24
-4 0 -21 -6 -37 -14 -16 -8 -182 -78 -369 -157 -187 -78 -342 -143 -344 -145
-3 -3 -5 -550 -2 -634 1 -20 10 -29 49 -44 26 -10 61 -24 77 -31 17 -7 217
-92 445 -188 892 -376 1066 -449 1095 -462 17 -7 59 -25 95 -40 36 -15 79 -33
95 -41 103 -45 395 -164 402 -164 6 0 15 19 22 43 12 40 81 262 141 452 37
116 44 146 34 144 -5 -1 -22 3 -39 10 -16 7 -140 55 -275 107 -135 52 -254 99
-265 104 -11 5 -243 95 -515 200 -272 106 -505 198 -518 204 -26 14 -60 -1
463 201 138 53 265 103 282 110 18 8 77 31 130 51 54 20 112 42 128 49 17 8
120 48 230 90 261 100 379 147 383 150 4 4 -24 96 -86 290 -21 66 -53 171 -72
232 -19 62 -39 112 -45 112 -5 -1 -46 -17 -90 -36z"/>
<path d="M4685 4718 c-2 -7 -37 -112 -76 -233 -39 -121 -80 -247 -91 -280 -41
-125 -43 -111 20 -135 32 -12 66 -26 77 -31 11 -5 292 -114 625 -243 842 -326
874 -338 883 -346 6 -6 -176 -78 -1023 -406 -484 -188 -615 -241 -614 -250 4
-23 197 -610 203 -617 4 -4 115 38 247 94 226 95 507 213 584 246 19 8 44 18
55 23 74 33 125 54 235 100 69 28 141 58 160 67 19 9 80 35 135 58 394 164
832 350 839 356 13 12 14 648 1 658 -5 4 -62 29 -125 55 -63 27 -128 54 -145
61 -16 8 -129 55 -250 105 -121 50 -233 97 -250 105 -16 7 -113 48 -215 90
-102 43 -295 124 -430 180 -135 56 -371 155 -525 219 -154 64 -288 121 -298
126 -12 8 -19 7 -22 -2z"/>
</g>
</svg>
