<?xml version="1.0" standalone="no"?>
<!DOCTYPE svg PUBLIC "-//W3C//DTD SVG 20010904//EN"
 "http://www.w3.org/TR/2001/REC-SVG-20010904/DTD/svg10.dtd">
<svg version="1.0" xmlns="http://www.w3.org/2000/svg"
 width="700.000000pt" height="700.000000pt" viewBox="0 0 700.000000 700.000000"
 preserveAspectRatio="xMidYMid meet">
<metadata>
Created by potrace 1.14, written by Peter Selinger 2001-2017
</metadata>
<g transform="translate(0.000000,700.000000) scale(0.100000,-0.100000)"
fill="#000000" stroke="none">
<path d="M3936 6010 c-2 -3 -17 -48 -34 -100 -59 -185 -152 -470 -270 -835
-66 -203 -168 -518 -227 -700 -164 -508 -258 -797 -339 -1045 -8 -25 -61 -187
-117 -360 -56 -173 -118 -367 -139 -430 -21 -63 -74 -230 -120 -370 -45 -140
-110 -343 -145 -450 -186 -571 -235 -723 -235 -730 0 -4 717 -5 743 -1 4 0 7
6 7 12 0 11 56 188 210 664 32 99 100 308 150 465 50 157 114 355 142 440 121
376 151 469 223 695 42 132 83 258 90 280 16 46 91 278 200 620 42 132 87 272
100 310 13 39 55 171 95 295 40 124 86 268 103 320 17 52 32 100 33 105 1 6
11 37 22 70 12 33 64 195 117 360 53 165 103 318 110 340 7 22 11 42 8 45 -6
6 -724 6 -727 0z"/>
<path d="M2231 4670 c-35 -15 -84 -37 -110 -48 -25 -11 -199 -84 -386 -162
-454 -190 -833 -349 -870 -364 -16 -7 -43 -19 -60 -26 -128 -53 -588 -246
-620 -259 -22 -10 -54 -23 -71 -30 l-32 -12 1 -324 c0 -227 3 -325 11 -328 6
-3 173 -73 371 -157 198 -84 385 -163 415 -175 89 -36 699 -294 734 -309 17
-8 103 -45 191 -81 88 -36 169 -70 180 -75 74 -35 329 -139 332 -136 3 2 48
143 102 313 l97 309 -95 38 c-53 21 -145 57 -206 81 -279 107 -792 307 -810
315 -11 5 -119 47 -240 94 -121 47 -233 90 -250 96 l-30 12 60 22 c51 19 499
194 1383 538 100 39 182 76 182 83 0 10 -20 74 -136 443 -32 101 -60 172 -67
171 -7 -1 -41 -14 -76 -29z"/>
<path d="M4611 4482 c-38 -119 -84 -260 -100 -312 -17 -52 -28 -97 -23 -100 4
-4 133 -55 287 -115 301 -116 509 -197 645 -250 47 -18 216 -84 375 -145 160
-62 296 -115 303 -119 9 -5 -3 -14 -35 -25 -26 -10 -111 -43 -188 -73 -77 -30
-158 -61 -180 -70 -22 -8 -51 -20 -65 -25 -14 -6 -176 -68 -360 -139 -184 -71
-344 -133 -355 -138 -11 -5 -110 -44 -220 -86 -110 -42 -203 -80 -207 -84 -7
-6 12 -70 134 -441 28 -85 51 -161 51 -167 1 -26 -76 -57 1122 449 143 60 314
132 380 160 66 28 138 58 160 68 35 16 281 119 465 195 36 15 76 33 90 40 l25
14 0 322 0 322 -270 113 c-148 63 -301 127 -340 143 -38 17 -140 59 -225 95
-85 35 -355 148 -600 251 -245 102 -458 192 -475 200 -16 7 -79 34 -140 58
-60 25 -126 52 -147 61 l-36 16 -71 -218z"/>
</g>
</svg>
