<svg xmlns="http://www.w3.org/2000/svg" width="24" height="24" viewBox="0 0 693 693" fill="currentFill">
  <path fill-rule="evenodd" clip-rule="evenodd" d="M633.5 525.3 394.3 111.6a55.3 55.3 0 0 0-95.6 0L59.5 525.3a55.2 55.2 0 0 0 47.8 82.7h478.4c42.5 0 69-46 47.8-82.7ZM334 131.9a14.5 14.5 0 0 1 25 0l239.2 413.7a14.4 14.4 0 0 1-12.5 21.7H107.3c-11.1 0-18-12-12.5-21.7L334 132Zm-6.4 266.8a1410 1410 0 0 1 6.8 51.5h23.8a1170.8 1170.8 0 0 1 18-115.5 357.9 357.9 0 0 0 7-41.3c.7-6.8 1.1-14.8 1.1-24a70 70 0 0 0-3.3-22.2c-2.1-6.5-5-12-8.6-16.5a35.7 35.7 0 0 0-26.4-14.3c-4.6 0-9.3 1.3-14 3.8a38.8 38.8 0 0 0-12.3 10.5c-3.6 4.5-6.5 10-8.7 16.5a70 70 0 0 0-3.2 22.2c0 9.2.3 17.2 1 24 .7 6.9 1.6 13.6 2.7 20.3a581 581 0 0 0 4.4 21 943.7 943.7 0 0 1 11.7 64Zm-11.2 95.9a33.6 33.6 0 0 0 0 25 30.7 30.7 0 0 0 17 16.5 31 31 0 0 0 12.6 2.6 31 31 0 0 0 12.6-2.6 30.7 30.7 0 0 0 19.8-29.2c0-4.3-.8-8.4-2.5-12.3a30 30 0 0 0-7-10.3 30 30 0 0 0-10.3-7 31 31 0 0 0-12.6-2.6 31 31 0 0 0-22.6 9.6 30 30 0 0 0-7 10.3Z"/>
</svg>
