<svg width="693" height="693" viewBox="0 0 693 693" fill="none" xmlns="http://www.w3.org/2000/svg"><path fill-rule="evenodd" clip-rule="evenodd" d="M684 557 403 70a65 65 0 0 0-113 0L9 557c-25 43 6 97 56 97h563c50 0 81-54 56-97ZM332 94c6-11 23-11 29 0l282 487c6 11-2 25-15 25H65c-13 0-21-14-15-25L332 94Zm-8 314 8 61h28a1381 1381 0 0 1 26-161 258 258 0 0 0 5-52c0-10-1-19-4-26-2-8-6-14-10-20a42 42 0 0 0-31-16c-6 0-11 1-17 4-5 3-10 7-14 12-4 6-8 12-10 20-3 7-4 16-4 26a317 317 0 0 0 10 77 683 683 0 0 1 13 75Zm-13 113c-2 4-3 9-3 14a36 36 0 0 0 23 34c5 3 10 4 15 4l15-3c5-2 9-5 12-8a36 36 0 0 0 11-27c0-5-1-10-3-14-2-5-5-9-8-12-3-4-7-7-12-9l-15-3a36 36 0 0 0-27 12c-3 3-6 7-8 12Z" fill="currentColor"/></svg>